<?xml version="1.0" encoding="UTF-8" standalone="no"?>
<!-- Created with Inkscape (http://www.inkscape.org/) -->

<svg
   width="304mm"
   height="297mm"
   viewBox="0 0 304 297"
   version="1.1"
   id="svg1"
   inkscape:version="1.3 (0e150ed6c4, 2023-07-21)"
   sodipodi:docname="TARge-25 Rasmus Olesk stickman fight sketch.svg"
   xmlns:inkscape="http://www.inkscape.org/namespaces/inkscape"
   xmlns:sodipodi="http://sodipodi.sourceforge.net/DTD/sodipodi-0.dtd"
   xmlns="http://www.w3.org/2000/svg"
   xmlns:svg="http://www.w3.org/2000/svg">
  <sodipodi:namedview
     id="namedview1"
     pagecolor="#505050"
     bordercolor="#eeeeee"
     borderopacity="1"
     inkscape:showpageshadow="0"
     inkscape:pageopacity="0"
     inkscape:pagecheckerboard="0"
     inkscape:deskcolor="#505050"
     inkscape:document-units="mm"
     inkscape:zoom="0.70710678"
     inkscape:cx="331.63308"
     inkscape:cy="621.54686"
     inkscape:window-width="1920"
     inkscape:window-height="991"
     inkscape:window-x="-9"
     inkscape:window-y="-9"
     inkscape:window-maximized="1"
     inkscape:current-layer="layer1" />
  <defs
     id="defs1">
    <inkscape:path-effect
       effect="powerstroke"
       id="path-effect30"
       is_visible="true"
       lpeversion="1.3"
       scale_width="1"
       interpolator_type="CubicBezierJohan"
       interpolator_beta="0.2"
       start_linecap_type="zerowidth"
       end_linecap_type="zerowidth"
       offset_points="7,18.867925"
       linejoin_type="extrp_arc"
       miter_limit="4"
       not_jump="false"
       sort_points="true"
       message="&lt;b&gt;Ctrl + click&lt;/b&gt; on existing node and move it" />
    <inkscape:path-effect
       effect="spiro"
       id="path-effect29"
       is_visible="true"
       lpeversion="1" />
    <inkscape:path-effect
       effect="spiro"
       id="path-effect28"
       is_visible="true"
       lpeversion="1" />
    <inkscape:path-effect
       effect="spiro"
       id="path-effect27"
       is_visible="true"
       lpeversion="1" />
    <inkscape:path-effect
       effect="spiro"
       id="path-effect26"
       is_visible="true"
       lpeversion="1" />
    <inkscape:path-effect
       effect="spiro"
       id="path-effect25"
       is_visible="true"
       lpeversion="1" />
    <inkscape:path-effect
       effect="spiro"
       id="path-effect24"
       is_visible="true"
       lpeversion="1" />
    <inkscape:path-effect
       effect="spiro"
       id="path-effect23"
       is_visible="true"
       lpeversion="1" />
    <inkscape:path-effect
       effect="spiro"
       id="path-effect22"
       is_visible="true"
       lpeversion="1" />
    <inkscape:path-effect
       effect="spiro"
       id="path-effect21"
       is_visible="true"
       lpeversion="1" />
    <inkscape:path-effect
       effect="spiro"
       id="path-effect20"
       is_visible="true"
       lpeversion="1" />
    <inkscape:path-effect
       effect="spiro"
       id="path-effect19"
       is_visible="true"
       lpeversion="1" />
    <inkscape:path-effect
       effect="spiro"
       id="path-effect18"
       is_visible="true"
       lpeversion="1" />
    <inkscape:path-effect
       effect="spiro"
       id="path-effect17"
       is_visible="true"
       lpeversion="1" />
    <inkscape:path-effect
       effect="spiro"
       id="path-effect16"
       is_visible="true"
       lpeversion="1" />
    <inkscape:path-effect
       effect="spiro"
       id="path-effect15"
       is_visible="true"
       lpeversion="1" />
    <inkscape:path-effect
       effect="spiro"
       id="path-effect14"
       is_visible="true"
       lpeversion="1" />
    <inkscape:path-effect
       effect="spiro"
       id="path-effect13"
       is_visible="true"
       lpeversion="1" />
    <inkscape:path-effect
       effect="spiro"
       id="path-effect12"
       is_visible="true"
       lpeversion="1" />
    <inkscape:path-effect
       effect="spiro"
       id="path-effect11"
       is_visible="true"
       lpeversion="1" />
    <inkscape:path-effect
       effect="spiro"
       id="path-effect10"
       is_visible="true"
       lpeversion="1" />
    <inkscape:path-effect
       effect="spiro"
       id="path-effect9"
       is_visible="true"
       lpeversion="1" />
    <inkscape:path-effect
       effect="spiro"
       id="path-effect8"
       is_visible="true"
       lpeversion="1" />
    <inkscape:path-effect
       effect="spiro"
       id="path-effect7"
       is_visible="true"
       lpeversion="1" />
    <inkscape:path-effect
       effect="spiro"
       id="path-effect6"
       is_visible="true"
       lpeversion="1" />
    <inkscape:path-effect
       effect="spiro"
       id="path-effect5"
       is_visible="true"
       lpeversion="1" />
    <inkscape:path-effect
       effect="spiro"
       id="path-effect4"
       is_visible="true"
       lpeversion="1" />
    <inkscape:path-effect
       effect="spiro"
       id="path-effect3"
       is_visible="true"
       lpeversion="1" />
    <inkscape:path-effect
       effect="spiro"
       id="path-effect2"
       is_visible="true"
       lpeversion="1" />
    <inkscape:path-effect
       effect="spiro"
       id="path-effect1"
       is_visible="true"
       lpeversion="1" />
  </defs>
  <g
     inkscape:label="Kiht 1"
     inkscape:groupmode="layer"
     id="layer1">
    <path
       style="fill:#000000;stroke:#000000;stroke-width:4.99999;stroke-opacity:1;paint-order:markers fill stroke"
       d="m 39.6875,237.86041 c -3.424673,3.67431 -6.135452,8.01155 -7.9375,12.7 -0.682072,1.77457 -1.238449,3.60554 -2.116667,5.29167 -1.30115,2.49814 -3.272442,4.60763 -4.497917,7.14375 -0.777451,1.60894 -1.235264,3.34999 -1.852083,5.02708 -1.86692,5.07604 -5.169822,9.51669 -7.14375,14.55209 -1.086778,2.77232 -1.762859,5.7862 -1.322917,8.73125 0.03957,0.26488 0.08811,0.52911 0.102436,0.79655 0.01432,0.26744 -0.0068,0.54079 -0.102436,0.79095 -0.101499,0.26543 -0.282043,0.49304 -0.475995,0.70073 -0.193951,0.20769 -0.40438,0.40063 -0.582338,0.62218 -0.248878,0.30984 -0.430622,0.67333 -0.529166,1.05834"
       id="path5"
       inkscape:path-effect="#path-effect6"
       inkscape:original-d="m 39.6875,237.86041 c -4.257612,8.51523 6.399527,-12.60063 -7.9375,12.7 -0.93661,1.65284 -1.224513,3.61442 -2.116667,5.29167 -1.321464,2.48435 -3.196283,4.64895 -4.497917,7.14375 -0.826051,1.58326 -1.123583,3.39664 -1.852083,5.02708 -2.190724,4.90305 -5.301652,9.48632 -7.14375,14.55209 -0.72801,2.00202 -1.159964,6.4499 -1.322917,8.73125 -0.0377,0.52781 0.180839,1.09019 0,1.5875 -0.192989,0.53072 -0.745083,0.85304 -1.058333,1.32291 -0.218783,0.32817 -0.352778,0.70557 -0.529166,1.05834" />
    <path
       style="fill:#000000;stroke:#000000;stroke-width:4.99999;stroke-opacity:1;paint-order:markers fill stroke"
       d="m 39.158333,239.18333 c 2.1485,5.34785 4.624089,10.56428 7.408333,15.61042 0.762842,1.38257 1.551848,2.75874 2.116667,4.23333 0.628762,1.64152 0.970332,3.38116 1.5875,5.02708 0.667779,1.78089 1.655805,3.44637 2.116666,5.29167 0.302449,1.21101 0.368998,2.46628 0.529167,3.70417 0.227211,1.75604 0.658562,3.51964 1.5875,5.02708 0.208034,0.33759 0.444438,0.67095 0.529167,1.05833 0.07567,0.34597 0.02349,0.70498 0,1.05834 -0.09148,1.37608 0.259256,2.74461 0.717578,4.04534 0.458323,1.30074 1.027415,2.56407 1.399088,3.89216 0.325546,1.16327 0.496082,2.36378 0.767144,3.54094 0.271062,1.17716 0.652872,2.35138 1.349523,3.33822 0.183638,0.26013 0.389325,0.50768 0.529167,0.79375 0.245482,0.50217 0.272509,1.09095 0.529166,1.5875 0.146123,0.2827 0.360831,0.52368 0.529167,0.79375 0.436838,0.70083 0.536925,1.60162 0.264583,2.38125"
       id="path6"
       inkscape:path-effect="#path-effect7"
       inkscape:original-d="m 39.158333,239.18333 c 3.088052,6.1761 -1.807932,-3.63531 7.408333,15.61042 0.681403,1.42293 1.530734,2.7685 2.116667,4.23333 0.652632,1.63158 0.993783,3.37316 1.5875,5.02708 0.641863,1.78806 1.580615,3.46909 2.116666,5.29167 0.351933,1.19658 0.295791,2.47893 0.529167,3.70417 0.222618,1.16874 1.076034,3.83365 1.5875,5.02708 0.155369,0.36253 0.433507,0.67569 0.529167,1.05833 0.08556,0.34224 -0.06919,0.71242 0,1.05834 0.515593,2.57796 1.395378,5.413 2.116666,7.9375 0.650373,2.27631 1.188342,4.71307 2.116667,6.87916 0.125262,0.29229 0.400018,0.50316 0.529167,0.79375 0.226541,0.50972 0.302625,1.07778 0.529166,1.5875 0.129149,0.29059 0.428609,0.49207 0.529167,0.79375 0.141422,0.42426 0.133366,1.8564 0.264583,2.38125" />
    <path
       style="fill:#000000;stroke:#000000;stroke-width:4.99999;stroke-opacity:1;paint-order:markers fill stroke"
       d="m 39.422916,242.09375 v -2.64584 c 0,-9.08632 0.658207,-18.18963 0,-27.25208 -0.481189,-6.62519 -1.898961,-13.20841 -1.5875,-19.84375 0.107407,-2.28818 0.420522,-4.56718 0.414464,-6.85787 -0.0061,-2.29069 -0.352618,-4.63776 -1.472797,-6.63588 -0.347926,-0.62061 -0.767608,-1.2027 -1.058333,-1.85208 -0.263016,-0.58749 -0.415088,-1.2186 -0.529167,-1.85209 -0.425595,-2.36336 -0.334669,-4.81835 0.264583,-7.14375"
       id="path8"
       inkscape:path-effect="#path-effect9"
       inkscape:original-d="m 39.422916,242.09375 c 0,-0.88195 0,-1.76389 0,-2.64584 0,-9.08402 0.133575,-18.16903 0,-27.25208 -0.08415,-5.72238 -1.107887,-14.40812 -1.5875,-19.84375 -0.008,-0.0904 -1.010195,-13.23701 -1.058333,-13.49375 -0.131038,-0.69887 -0.778238,-1.19853 -1.058333,-1.85208 -0.252924,-0.59015 -0.394637,-1.22427 -0.529167,-1.85209 -0.514985,-2.40326 -0.134419,-4.74973 0.264583,-7.14375" />
    <path
       style="fill:#000000;stroke:#000000;stroke-width:4.99999;stroke-opacity:1;paint-order:markers fill stroke"
       d="m 36.247916,177.00625 c -0.06163,0.62077 -0.149935,1.23889 -0.264583,1.85208 -1.056882,5.65272 -4.277,10.62086 -6.614583,15.875 -1.271695,2.85837 -2.288588,5.82218 -3.439584,8.73125 -1.615018,4.08185 -3.494638,8.05727 -5.027083,12.17083 -0.623449,1.67353 -1.189018,3.36886 -1.852083,5.02709 -0.851308,2.129 -1.867259,4.20201 -3.175,6.08541 -0.362909,0.52266 -0.74877,1.03158 -1.058334,1.5875 -0.40942,0.73524 -0.680142,1.54741 -0.79375,2.38125"
       id="path10"
       inkscape:path-effect="#path-effect11"
       inkscape:original-d="m 36.247916,177.00625 c -0.08819,0.61736 -0.06017,1.2629 -0.264583,1.85208 -7.877932,22.70698 -1.111636,3.11817 -6.614583,15.875 -1.239015,2.87226 -2.240339,5.84216 -3.439584,8.73125 -5.53102,13.32473 1.033256,-3.87124 -5.027083,12.17083 -0.631103,1.67057 -1.116033,3.40003 -1.852083,5.02709 -0.943024,2.08458 -2.069738,4.08213 -3.175,6.08541 -0.307227,0.55685 -0.807809,1.00295 -1.058334,1.5875 -1.258688,2.93694 0.105015,1.48249 -0.79375,2.38125" />
    <path
       style="fill:#000000;stroke:#000000;stroke-width:4.99999;stroke-opacity:1;paint-order:markers fill stroke"
       d="m 37.30625,180.18125 c 3.306486,5.719 7.627111,10.84974 12.699999,15.08125 2.263818,1.88834 4.674969,3.59864 6.879167,5.55625 2.845877,2.5275 5.31773,5.44091 7.9375,8.20208 2.623605,2.76522 5.413053,5.39702 7.672916,8.46667 0.33514,0.45523 0.660051,0.92176 1.058334,1.32291 0.17581,0.17708 0.365423,0.34088 0.529166,0.52917 0.410328,0.47185 0.64319,1.09448 0.64319,1.71979 0,0.62531 -0.232862,1.24794 -0.64319,1.71979"
       id="path11"
       inkscape:path-effect="#path-effect12"
       inkscape:original-d="m 37.30625,180.18125 c 4.354202,4.91905 8.125983,10.36203 12.699999,15.08125 2.051447,2.11657 4.719188,3.55055 6.879167,5.55625 2.78802,2.58887 5.278308,5.48104 7.9375,8.20208 5.368779,5.49363 1.881566,1.51704 7.672916,8.46667 0.361524,0.43383 0.69082,0.89415 1.058334,1.32291 0.16234,0.1894 0.468667,0.28717 0.529166,0.52917 0.278075,1.1123 0,2.29306 0,3.43958" />
    <path
       style="fill:none;stroke:#000000;stroke-width:4.99999;stroke-opacity:1;paint-order:markers fill stroke"
       d="m 35.71875,170.39166 c -4.997134,-2.65651 -9.856509,-5.57214 -14.552084,-8.73125 -1.567854,-1.05483 -3.124084,-2.14212 -4.497916,-3.43958 -2.333124,-2.20343 -4.095767,-4.98754 -5.196824,-8.00188 -1.101056,-3.01434 -1.5477154,-6.25411 -1.417759,-9.46062 0.09496,-2.34311 0.497726,-4.68412 1.322916,-6.87917 0.768387,-2.04395 1.94462,-3.99855 3.704167,-5.29166 1.08553,-0.79777 2.354806,-1.31788 3.439583,-2.11667 0.810621,-0.59691 1.51173,-1.34478 2.38125,-1.85208 1.281516,-0.74766 2.808752,-0.90837 4.233333,-1.32292 1.345294,-0.39148 2.609334,-1.01438 3.90007,-1.55942 1.290736,-0.54504 2.637948,-1.01917 4.03743,-1.08641 0.704917,-0.0339 1.41187,0.0363 2.116667,0 1.126049,-0.058 2.218296,-0.38543 3.30148,-0.69858 1.083184,-0.31314 2.185589,-0.61655 3.313103,-0.62434 1.062662,-0.007 2.112432,0.24865 3.175,0.26459 0.176372,0.003 0.35278,-0.001 0.529167,0 2.313393,0.0175 4.54921,0.95749 6.433575,2.2996 1.884365,1.34211 3.454924,3.07321 4.943508,4.84415 0.568056,0.6758 1.128639,1.36244 1.5875,2.11666 0.976062,1.60433 1.457977,3.45557 1.852083,5.29167 1.026277,4.78131 1.538156,9.76709 0.529167,14.55208 -0.3752,1.77934 -0.95644,3.51052 -1.322917,5.29167 -0.09063,0.44049 -0.16805,0.88368 -0.264583,1.32291 -0.289125,1.31553 -0.755716,2.60412 -1.496248,3.72921 -0.740532,1.12509 -1.767117,2.08218 -3.001669,2.62079 -0.615339,0.26846 -1.278669,0.43341 -1.855205,0.77739 -0.288268,0.17198 -0.553393,0.38983 -0.74825,0.66316 -0.194858,0.27333 -0.316256,0.60515 -0.306961,0.9407 0.0024,0.0883 0.01373,0.17731 0,0.26459 -0.01364,0.0867 -0.05208,0.1689 -0.106848,0.23752 -0.05477,0.0686 -0.125533,0.12383 -0.203644,0.16391 -0.156223,0.0802 -0.338166,0.0989 -0.513057,0.0833 -0.349784,-0.0311 -0.678517,-0.19175 -1.028535,-0.22014 -0.405277,-0.0329 -0.810019,0.117 -1.143026,0.35032 -0.333007,0.23331 -0.602251,0.54583 -0.848911,0.86908 -0.246659,0.32325 -0.475087,0.66134 -0.745704,0.96481 -0.270618,0.30348 -0.58921,0.57467 -0.966525,0.72621 -0.39288,0.15779 -0.831114,0.17918 -1.22033,0.3458 -0.194608,0.0833 -0.377263,0.20547 -0.501685,0.37673 -0.06221,0.0856 -0.109115,0.18289 -0.132996,0.28601 -0.02388,0.10311 -0.02438,0.21211 0.0029,0.31437 0.01197,0.0448 0.02922,0.0885 0.03477,0.13458 0.0028,0.023 0.0026,0.0466 -0.0028,0.0692 -0.0053,0.0226 -0.01588,0.0442 -0.03202,0.0608 -0.01625,0.0168 -0.03769,0.0281 -0.06031,0.034 -0.02261,0.006 -0.04638,0.007 -0.06959,0.004 -0.04643,-0.005 -0.09026,-0.0234 -0.134687,-0.0378 -0.273863,-0.0892 -0.578944,-0.0406 -0.839724,0.0817 -0.260779,0.12229 -0.483198,0.31298 -0.689195,0.51428 -0.205996,0.20131 -0.399717,0.41605 -0.621604,0.5997 -0.221887,0.18364 -0.477102,0.33721 -0.759894,0.39186 -0.347158,0.0671 -0.705262,-0.019 -1.058333,0 -0.378464,0.0204 -0.739992,0.16081 -1.082545,0.323 -0.342553,0.1622 -0.675365,0.3485 -1.034121,0.47075 -0.675397,0.23015 -1.404419,0.2218 -2.116667,0.26458 -0.08818,0.005 -0.176984,0.0114 -0.264583,0 -0.158909,-0.0207 -0.309366,-0.10087 -0.415118,-0.22127 -0.105752,-0.1204 -0.165871,-0.27994 -0.165871,-0.44019 0,-0.16025 0.06012,-0.31979 0.165871,-0.44019 0.105752,-0.1204 0.256209,-0.2006 0.415118,-0.22127 z"
       id="path19"
       inkscape:path-effect="#path-effect20"
       inkscape:original-d="m 35.71875,170.39166 c -5.885987,-0.74019 -10.128853,-5.19266 -14.552084,-8.73125 -1.473845,-1.17907 -3.255026,-2.01913 -4.497916,-3.43958 -4.792266,-5.47687 -6.8851604,-10.4275 -6.614583,-17.4625 0.105003,-2.73009 0.08858,-4.41049 1.322916,-6.87917 0.04235,-0.0847 3.13098,-4.80898 3.704167,-5.29166 1.029746,-0.86716 2.327291,-1.35829 3.439583,-2.11667 0.830831,-0.56647 1.474704,-1.41694 2.38125,-1.85208 1.332819,-0.63975 2.836982,-0.83723 4.233333,-1.32292 2.72814,-0.94892 4.997749,-2.22587 7.9375,-2.64583 0.698466,-0.0998 1.412486,0.044 2.116667,0 2.265122,-0.14157 4.372586,-1.32292 6.614583,-1.32292 1.062001,0 2.115698,0.18892 3.175,0.26459 0.17594,0.0126 0.362569,-0.0579 0.529167,0 5.922401,2.05996 6.840961,2.60762 11.377083,7.14375 0.623628,0.62362 1.178272,1.33541 1.5875,2.11666 0.745231,1.42271 1.407866,3.62585 1.852083,5.29167 1.453748,5.45156 1.599166,9.20208 0.529167,14.55208 -0.361601,1.808 -0.838999,3.5173 -1.322917,5.29167 -0.118324,0.43386 -0.07613,0.9146 -0.264583,1.32291 -1.079011,2.33786 -2.819339,4.43163 -4.497917,6.35 -0.842512,0.96288 -2.035603,1.50644 -2.910416,2.38125 -0.06236,0.0624 0.07888,0.22515 0,0.26459 -0.624372,0.31219 -1.051626,-0.18012 -1.852084,0.26458 -1.330293,0.73905 -2.577322,1.90878 -3.704166,2.91042 -0.567042,0.50403 -1.315617,0.78645 -1.852084,1.32291 -0.06236,0.0624 0.06236,0.20223 0,0.26459 -0.06236,0.0624 -0.18801,-0.0438 -0.264583,0 -1.049258,0.59957 -1.789377,1.21382 -2.910417,1.5875 -0.3175,0.10583 -0.740833,-0.10584 -1.058333,0 -0.714864,0.23829 -1.401802,0.55546 -2.116666,0.79375 -0.988087,0.32936 -1.353074,0.64638 -2.116667,0.26458 -0.07888,-0.0394 -0.247288,0.0865 -0.264583,0 -0.08648,-0.43241 0,-0.88194 0,-1.32292 z" />
    <text
       xml:space="preserve"
       style="font-size:20.123px;font-family:'Microsoft Tai Le';-inkscape-font-specification:'Microsoft Tai Le';fill:none;stroke:#000000;stroke-width:1.95727;stroke-opacity:1;paint-order:markers fill stroke"
       x="1.0051919"
       y="112.68452"
       id="text20"
       transform="scale(1.0306646,0.97024774)"><tspan
         sodipodi:role="line"
         id="tspan20"
         style="font-style:normal;font-variant:normal;font-weight:normal;font-stretch:normal;font-size:20.123px;font-family:'Lucida Fax';-inkscape-font-specification:'Lucida Fax';stroke-width:1.95727"
         x="1.0051919"
         y="112.68452">Kickman</tspan></text>
    <path
       style="fill:none;stroke:#000000;stroke-width:4.99999;stroke-opacity:1;paint-order:markers fill stroke"
       d="m 232.30416,243.41666 c -3.63138,3.05291 -6.62417,6.86192 -8.73125,11.1125 -0.61331,1.23721 -1.15351,2.51302 -1.85208,3.70417 -1.27696,2.17737 -3.05005,4.01775 -4.49792,6.08542 -0.6597,0.9421 -1.25084,1.92997 -1.85208,2.91041 -2.24569,3.66205 -4.65979,7.25693 -7.67292,10.31875 -1.13752,1.1559 -2.35693,2.23215 -3.43958,3.43959 -2.34305,2.61312 -4.01009,5.83227 -4.7625,9.26041 -0.19283,0.87856 -0.32655,1.76949 -0.52917,2.64584 -0.34047,1.47258 -0.87575,2.89999 -1.5875,4.23333"
       id="path20"
       inkscape:path-effect="#path-effect21"
       inkscape:original-d="m 232.30416,243.41666 c -3.05973,3.67168 -5.79454,6.9172 -8.73125,11.1125 -0.79164,1.13092 -1.10085,2.54602 -1.85208,3.70417 -1.37268,2.11621 -3.04328,4.02468 -4.49792,6.08542 -0.66313,0.93945 -1.18018,1.97723 -1.85208,2.91041 -2.5045,3.47848 -4.97803,6.98561 -7.67292,10.31875 -1.69767,2.09976 -2.30575,1.49588 -3.43958,3.43959 -0.90587,1.55292 -4.00999,7.00288 -4.7625,9.26041 -0.28442,0.85326 -0.27072,1.78435 -0.52917,2.64584 -0.43305,1.44351 -1.11092,2.8036 -1.5875,4.23333" />
    <path
       style="fill:none;stroke:#000000;stroke-width:4.99999;stroke-opacity:1;paint-order:markers fill stroke"
       d="m 230.45208,244.475 c 7.4831,10.97381 14.89167,21.99845 22.225,33.07291 1.18908,1.79569 2.37776,3.5949 3.70417,5.29167 2.31726,2.9643 5.04752,5.60673 7.14375,8.73125 1.56872,2.33825 2.76609,4.92359 4.49791,7.14375 0.89073,1.1419 1.92148,2.18553 2.64584,3.43958 0.42207,0.73071 0.73453,1.52412 1.204,2.22533 0.23473,0.3506 0.50944,0.67769 0.83924,0.94086 0.32979,0.26317 0.71691,0.46105 1.13176,0.53798 0.26161,0.0485 0.53214,0.0485 0.79375,0"
       id="path21"
       inkscape:path-effect="#path-effect22"
       inkscape:original-d="m 230.45208,244.475 c 6.99699,11.27813 14.65206,22.17851 22.225,33.07291 1.22893,1.76792 2.39929,3.57902 3.70417,5.29167 2.27898,2.99117 4.97015,5.66264 7.14375,8.73125 1.6265,2.29624 2.90893,4.8214 4.49791,7.14375 0.81682,1.1938 1.79044,2.27311 2.64584,3.43958 0.5869,0.80034 2.13966,3.18651 3.175,3.70417 0.23664,0.11832 0.52916,0 0.79375,0" />
    <path
       style="fill:none;stroke:#000000;stroke-width:4.99999;stroke-opacity:1;paint-order:markers fill stroke"
       d="m 230.45208,247.65 c -0.17178,-5.46626 -0.17178,-10.93791 0,-16.40417 0.16077,-5.11597 0.47197,-10.22766 0.52917,-15.34583 0.07,-6.26199 -0.24032,-12.52765 0,-18.78542 0.1223,-3.18472 0.38724,-6.36396 0.79375,-9.525"
       id="path23"
       inkscape:path-effect="#path-effect24"
       inkscape:original-d="m 230.45208,247.65 c 0.0124,-5.46797 -0.0729,-10.9366 0,-16.40417 0.0682,-5.11786 0.42883,-10.2285 0.52917,-15.34583 0.1227,-6.25787 -0.17876,-12.52907 0,-18.78542 0.0918,-3.21167 0.79375,-6.30762 0.79375,-9.525" />
    <path
       style="fill:none;stroke:#000000;stroke-width:4.99999;stroke-opacity:1;paint-order:markers fill stroke"
       d="m 230.1875,191.29375 c -1.31661,-0.29489 -2.63999,-0.55957 -3.96875,-0.79375 -3.18734,-0.56175 -6.41665,-0.95052 -9.525,-1.85209 -4.39772,-1.27555 -8.48312,-3.55801 -12.96459,-4.49791 -1.13567,-0.23818 -2.28783,-0.38791 -3.43958,-0.52917 -2.4652,-0.30235 -4.93503,-0.56697 -7.40833,-0.79375"
       id="path24"
       inkscape:path-effect="#path-effect25"
       inkscape:original-d="m 230.1875,191.29375 c -1.32292,-0.26459 -2.64485,-0.53416 -3.96875,-0.79375 -3.17403,-0.62236 -6.39637,-1.03146 -9.525,-1.85209 -4.42456,-1.16053 -8.5488,-3.30446 -12.96459,-4.49791 -1.11983,-0.30266 -2.29305,-0.35278 -3.43958,-0.52917 -2.51564,-0.38702 -4.87216,-0.79375 -7.40833,-0.79375" />
    <path
       style="fill:none;stroke:#000000;stroke-width:4.99999;stroke-opacity:1;paint-order:markers fill stroke"
       d="m 230.71666,205.84583 c -3.22229,-1.17931 -6.4885,-2.23862 -9.78958,-3.175 -3.25677,-0.92381 -6.59347,-1.74662 -9.525,-3.43958 -2.35424,-1.35957 -4.36549,-3.23527 -6.61458,-4.7625 -1.34085,-0.91049 -2.76469,-1.69573 -4.23334,-2.38125 -2.72857,-1.2736 -5.67717,-2.24385 -7.9375,-4.23334 -0.33238,-0.29255 -0.65519,-0.61061 -1.05833,-0.79375 -0.18028,-0.0819 -0.37741,-0.13739 -0.52917,-0.26458 -0.15403,-0.12909 -0.24694,-0.32819 -0.24694,-0.52916 0,-0.20098 0.0929,-0.40008 0.24694,-0.52917"
       id="path25"
       inkscape:path-effect="#path-effect26"
       inkscape:original-d="m 230.71666,205.84583 c -5.88013,-1.35695 -1.88089,-0.27515 -9.78958,-3.175 -3.16934,-1.16209 -6.46003,-2.02498 -9.525,-3.43958 -3.56048,-1.6433 -3.76332,-2.9377 -6.61458,-4.7625 -1.36367,-0.87275 -2.79528,-1.63743 -4.23334,-2.38125 -6.53766,-3.38155 -0.2591,0.51996 -7.9375,-4.23334 -0.37494,-0.2321 -0.69142,-0.54914 -1.05833,-0.79375 -0.16409,-0.10939 -0.44097,-0.0882 -0.52917,-0.26458 -0.15776,-0.31553 0,-0.70556 0,-1.05833" />
    <path
       style="fill:none;stroke:#000000;stroke-width:4.99999;stroke-opacity:1;paint-order:markers fill stroke"
       d="m 230.98125,189.17708 c -6.30036,-4.04988 -12.2404,-8.66006 -17.72709,-13.75833 -4.66792,-4.33746 -9.008,-9.02807 -12.96458,-14.02292 -1.18725,-1.4988 -2.34833,-3.03838 -3.175,-4.7625 -0.60423,-1.2602 -1.02182,-2.604 -1.32292,-3.96875 -1.2734,-5.7717 -0.41228,-11.98926 2.38125,-17.19792 0.36036,-0.6719 0.75994,-1.33791 1.32292,-1.85208 0.61594,-0.56255 1.39108,-0.91139 2.11667,-1.32292 1.23901,-0.70272 2.37184,-1.61277 3.70416,-2.11666 1.28197,-0.48485 2.6884,-0.56924 3.96875,-1.05833 1.3305,-0.50825 2.45831,-1.42646 3.70417,-2.11667 1.98047,-1.09718 4.2538,-1.60648 6.51698,-1.67062 2.26317,-0.0641 4.52182,0.30387 6.71219,0.87687 3.50856,0.91784 6.85769,2.3563 10.31875,3.43958 2.47683,0.77522 5.01775,1.37093 7.40833,2.38125 3.5178,1.48671 6.6923,3.91452 8.73125,7.14375 0.61447,0.97319 1.12695,2.01663 1.85208,2.91042 0.43431,0.53532 0.94196,1.01299 1.32292,1.5875 0.77478,1.1684 0.95494,2.61596 1.32292,3.96875 0.29288,1.07668 0.71374,2.11374 1.05833,3.175 2.09058,6.43846 1.26176,13.58726 -1.32292,19.84375 -0.59281,1.43496 -1.29377,2.86063 -2.38125,3.96875 -0.43715,0.44545 -0.93307,0.83552 -1.32291,1.32291 -0.52022,0.65039 -0.82916,1.44597 -1.32292,2.11667 -0.63203,0.85853 -1.53312,1.47075 -2.38125,2.11667 -2.05088,1.56192 -3.88866,3.41344 -6.08542,4.7625 -0.63679,0.39106 -1.30902,0.74096 -2.03478,0.91901 -0.72576,0.17805 -1.51376,0.17389 -2.19855,-0.12526 -0.29291,-0.12796 -0.56298,-0.308 -0.79375,-0.52917 -0.28858,0.50502 -0.71963,0.92762 -1.23027,1.20615 -0.51063,0.27853 -1.0993,0.41214 -1.68015,0.38135 -0.32427,-0.0172 -0.64576,-0.0843 -0.97043,-0.0782 -0.16234,0.003 -0.32545,0.0248 -0.47852,0.0789 -0.15308,0.0541 -0.29609,0.14175 -0.40313,0.26384 -0.0845,0.0963 -0.14465,0.21134 -0.2223,0.31324 -0.0388,0.051 -0.0823,0.0989 -0.13345,0.13746 -0.0511,0.0386 -0.11027,0.0677 -0.17342,0.0785 -0.0871,0.0148 -0.1764,-0.006 -0.26458,0 -0.0891,0.006 -0.17625,0.0383 -0.24698,0.0927 -0.0707,0.0544 -0.12472,0.1303 -0.15294,0.21496 -0.0282,0.0847 -0.0306,0.17775 -0.007,0.26372 0.0239,0.086 0.074,0.16446 0.14196,0.22236"
       id="path26"
       inkscape:path-effect="#path-effect27"
       inkscape:original-d="m 230.98125,189.17708 c -12.37341,-7.12409 -6.29556,-2.67322 -17.72709,-13.75833 -7.95162,-7.71067 -7.4845,-6.46419 -12.96458,-14.02292 -1.1199,-1.54468 -2.30125,-3.06639 -3.175,-4.7625 -0.63861,-1.23965 -1.02393,-2.6067 -1.32292,-3.96875 -1.41319,-6.43786 -1.67108,-11.79481 2.38125,-17.19792 0.45521,-0.60694 0.76544,-1.33748 1.32292,-1.85208 0.61138,-0.56434 1.40036,-0.89964 2.11667,-1.32292 1.22431,-0.72346 2.39013,-1.57292 3.70416,-2.11666 1.26512,-0.5235 2.70364,-0.53484 3.96875,-1.05833 1.31404,-0.54374 2.3706,-1.62276 3.70417,-2.11667 2.35145,-0.87091 10.93343,-1.12171 13.22917,-0.79375 3.79631,0.54233 6.76866,2.12473 10.31875,3.43958 4.31086,1.59662 1.65921,-0.0827 7.40833,2.38125 3.01807,1.29346 6.6419,4.53207 8.73125,7.14375 0.71835,0.89793 1.18895,1.97098 1.85208,2.91042 0.39724,0.56274 1.02677,0.96559 1.32292,1.5875 0.59953,1.25902 0.88194,2.64583 1.32292,3.96875 0.35277,1.05833 0.78776,2.09273 1.05833,3.175 1.46029,5.84116 1.26408,14.38231 -1.32292,19.84375 -0.52072,1.09929 -1.43441,2.90355 -2.38125,3.96875 -0.41431,0.4661 -0.94268,0.82861 -1.32291,1.32291 -0.5073,0.65949 -0.77503,1.49051 -1.32292,2.11667 -0.69933,0.79924 -1.6303,1.36572 -2.38125,2.11667 -2.40431,2.40431 -2.97284,3.51747 -6.08542,4.7625 -1.06504,0.42602 -3.04234,1.19074 -4.23333,0.79375 -0.33624,-0.11208 -0.36997,-0.69868 -0.79375,-0.52917 -2.16472,-1.30589 -1.89469,1.15219 -2.91042,1.5875 -0.20349,0.0872 -1.47657,0.0768 -1.85208,0.26458 -0.22311,0.11156 -0.30605,0.41761 -0.52917,0.52917 -0.0789,0.0394 -0.20222,-0.0624 -0.26458,0 -0.16569,0.16569 0.0107,0.51847 -0.26458,0.79375" />
    <path
       style="fill:none;stroke:#000000;stroke-width:4.99999;stroke-opacity:1;paint-order:markers fill stroke"
       d="m 194.20416,185.47291 c -0.25833,0.25003 -0.63494,0.37215 -0.99084,0.32131 -0.3559,-0.0508 -0.68325,-0.27353 -0.86124,-0.58589 -0.0978,-0.17156 -0.15223,-0.36679 -0.26458,-0.52917 -0.14788,-0.21374 -0.38601,-0.35266 -0.63583,-0.42438 -0.24981,-0.0717 -0.51286,-0.0821 -0.77277,-0.0817 -0.25991,3.4e-4 -0.5209,0.0108 -0.77886,-0.021 -0.25795,-0.0318 -0.51634,-0.109 -0.72296,-0.26667 -0.19856,-0.15152 -0.33828,-0.36808 -0.52917,-0.52916 -0.28777,-0.24284 -0.69013,-0.34344 -1.05833,-0.26459"
       id="path27"
       inkscape:path-effect="#path-effect28"
       inkscape:original-d="m 194.20416,185.47291 c -0.61736,-0.0882 -1.26816,-0.0456 -1.85208,-0.26458 -0.18465,-0.0692 -0.12513,-0.38972 -0.26458,-0.52917 -0.42262,-0.42261 -2.49777,-0.58742 -2.91042,-0.79375 -0.22311,-0.11155 -0.29251,-0.45028 -0.52917,-0.52916 -2.17912,-0.72638 1.25283,0.89099 -1.05833,-0.26459" />
    <path
       style="fill:none;stroke:#000000;stroke-width:4.99999;stroke-opacity:1;paint-order:markers fill stroke"
       d="m 196.58541,184.41458 c -0.367,0.0954 -0.77938,-0.008 -1.05833,-0.26458 -0.13917,-0.12815 -0.2439,-0.28836 -0.36162,-0.43645 -0.11773,-0.14809 -0.25559,-0.28929 -0.43213,-0.3573 -0.12485,-0.0481 -0.26181,-0.0565 -0.39534,-0.0481 -0.13354,0.008 -0.2655,0.0327 -0.39841,0.0481 -0.85819,0.0995 -1.75438,-0.19925 -2.38125,-0.79375 0.0237,-0.0398 0.0364,-0.086 0.0364,-0.13229 0,-0.0463 -0.0127,-0.0925 -0.0364,-0.1323 -0.0371,-0.0623 -0.1,-0.10698 -0.16886,-0.12955 -0.0689,-0.0226 -0.14343,-0.0242 -0.21507,-0.0131 -0.14328,0.0222 -0.27371,0.0927 -0.40982,0.14266 -0.3475,0.12748 -0.74354,0.11693 -1.08375,-0.0289 -0.34022,-0.1458 -0.62099,-0.42531 -0.76833,-0.76487"
       id="path28"
       inkscape:path-effect="#path-effect29"
       inkscape:original-d="m 196.58541,184.41458 c -0.35277,-0.0882 -0.73308,-0.10196 -1.05833,-0.26458 -0.3175,-0.15875 -0.47625,-0.635 -0.79375,-0.79375 -0.23665,-0.11833 -0.53849,0.0696 -0.79375,0 -0.79375,-0.26459 -1.5875,-0.52917 -2.38125,-0.79375 0,-0.0882 0.0624,-0.20222 0,-0.26459 -0.097,-0.097 -0.65264,0.0353 -0.79375,0 -0.66973,-0.16743 -1.24205,-0.48873 -1.85208,-0.79375" />
    <text
       xml:space="preserve"
       style="font-size:20.123px;font-family:'Microsoft Tai Le';-inkscape-font-specification:'Microsoft Tai Le';fill:none;stroke:#000000;stroke-width:1.95727;stroke-opacity:1;paint-order:markers fill stroke"
       x="182.75528"
       y="114.1488"
       id="text20-4"
       transform="scale(1.0306646,0.97024774)"><tspan
         sodipodi:role="line"
         id="tspan20-0"
         style="font-style:normal;font-variant:normal;font-weight:normal;font-stretch:normal;font-size:20.123px;font-family:'Lucida Fax';-inkscape-font-specification:'Lucida Fax';stroke-width:1.95727"
         x="182.75528"
         y="114.1488">Gunman</tspan></text>
    <path
       style="fill:#000000;fill-rule:nonzero;stroke:none;stroke-width:4.99999;stroke-opacity:1;paint-order:markers fill stroke"
       d="m 173.87309,245.99635 c -0.0385,-3.81222 -0.10647,-10.54041 -0.18709,-18.52178 a 2.499995,2.499995 0.49891603 0 0 -2.43109,-2.4738 c -6.31185,-0.17372 -13.33554,-0.36703 -20.39266,-0.56127 a 2.4999958,2.4999965 85.311262 0 0 -2.52322,2.9741 c 0.38444,1.98628 0.77068,3.98187 1.12253,5.79975 a 2.499995,2.499995 85.045131 0 0 2.40899,2.02453 c 1.83781,0.0334 3.57325,0.065 5.14494,0.0936 0.85285,0.0155 1.72968,0.0314 2.62222,0.0477 -0.10386,3.79099 -0.20853,7.6116 -0.30507,11.13529 a 2.499995,2.499995 89.101445 0 0 2.64586,2.56415 c 4.11573,-0.2421 7.65163,-0.45009 9.54152,-0.56126 z m -2.64667,-2.47043 c -1.45761,0.0857 -3.89433,0.22907 -6.82103,0.40123 0.097,-3.54212 0.19961,-7.28579 0.29954,-10.93329 a 2.4999945,2.4999957 1.3054797 0 0 -2.45361,-2.56805 c -1.76466,-0.0321 -3.49943,-0.0636 -5.14494,-0.0936 -0.98136,-0.0178 -2.02656,-0.0368 -3.12066,-0.0567 0.21463,1.10891 0.0365,0.18857 -0.14558,-0.75217 3.0567,0.0841 9.20328,0.2533 14.87044,0.40928 0.0699,6.91944 0.1282,12.69186 0.16277,16.11422 z"
       id="path29"
       inkscape:path-effect="#path-effect30"
       inkscape:original-d="m 171.37322,246.0216 -0.18709,-18.52178 -20.39266,-0.56127 1.12253,5.79975 v 0 l 10.28987,0.18709 -0.37417,13.65747 z" />
    <text
       xml:space="preserve"
       style="font-size:20.123px;font-family:'Microsoft Tai Le';-inkscape-font-specification:'Microsoft Tai Le';fill:none;stroke:#000000;stroke-width:1.95727;stroke-opacity:1;paint-order:markers fill stroke"
       x="136.63142"
       y="228.33549"
       id="text20-3"
       transform="scale(1.0306646,0.97024774)"><tspan
         sodipodi:role="line"
         id="tspan20-6"
         style="font-style:normal;font-variant:normal;font-weight:normal;font-stretch:normal;font-size:20.123px;font-family:'Lucida Fax';-inkscape-font-specification:'Lucida Fax';stroke-width:1.95727"
         x="136.63142"
         y="228.33549">relv</tspan></text>
  </g>
</svg>
